<svg version="1.2" xmlns="http://www.w3.org/2000/svg" viewBox="0 0 21 21" width="21" height="21"><style>.a{fill:#282828}</style><path fill-rule="evenodd" class="a" d="m20.2 9.9q0 1.4-0.3 2.7l-0.8-0.2q0.4-1.2 0.4-2.5c0-4.5-3.3-8.2-7.7-8.9l0.1-0.8c4.7 0.7 8.3 4.8 8.3 9.7zm-3.2 0q0 0.9-0.2 1.8l-0.9-0.3q0.2-0.7 0.2-1.4c0-2.8-2-5.1-4.7-5.6l0.2-0.9c3.1 0.5 5.4 3.2 5.4 6.4zm-3.2 0.1q0 0.3-0.1 0.7l-0.8-0.3q0.1-0.2 0.1-0.5c0-1.1-0.8-2.1-1.9-2.4l0.1-0.8c1.5 0.3 2.6 1.7 2.6 3.3zm-10.9-7.8l0.5-0.1 0.9 6.1-0.5 0.3c0 0 0.4 2.3 1.4 4 1 1.8 2.8 3.1 2.8 3.1l0.6-0.4 4.8 3.6c-0.5 0.4-1.1 0.8-1.1 0.8-1 1.1-2.2 1.4-3.3 0.8-1.1-0.6-3.7-1.5-6.5-5.5-2.8-4.1-2.2-8.7-2.1-10 0.2-1.2 1-2.5 2.5-2.7zm7.1 12.2c0 0 0.9-0.1 2.6 1 1.6 1.1 2.2 1.7 1.8 2.4q-0.1 0.2-0.4 0.5l-4.7-3.5zm-4.6-12.7c0 0 0.3 0.5 0.7 2.6 0.4 2.1-0.3 3-0.3 3l-0.8 0.5-0.8-5.9z"/></svg>