<svg version="1.2" xmlns="http://www.w3.org/2000/svg" viewBox="0 0 17 18" width="17" height="18"><style>.a{fill:#fff}</style><path class="a" d="m3.7 14.3q0.6 0 1.1 0.4 0.4 0.5 0.4 1.1 0 0.7-0.4 1.1-0.5 0.5-1.1 0.4-0.7 0.1-1.1-0.4-0.4-0.4-0.4-1.1 0-0.6 0.4-1.1 0.4-0.4 1.1-0.4zm10.4 0q0.6 0 1.1 0.4 0.4 0.5 0.4 1.1 0 0.7-0.4 1.1-0.5 0.5-1.1 0.4-0.7 0.1-1.1-0.4-0.4-0.4-0.4-1.1-0.1-0.6 0.4-1.1 0.4-0.4 1.1-0.4zm-10-12.8l0.6 1.2h11.1q0.5 0 0.8 0.3 0.3 0.3 0.3 0.7v4.6q0 0.4-0.3 0.7-0.2 0.3-0.6 0.3l-10 1.1q-0.6 0.1-0.6 0.6 0 0.5 0.7 0.5h9.4q0.8 0.2 0.8 0.8 0 0.7-0.8 0.8h-9.6q-1.6-0.1-2.1-1.3-0.4-1.2 0.8-2.3l0.9-0.6-3.1-6.7h-1.5q-0.8-0.1-0.8-0.9 0-0.7 0.8-0.8h1.8q0.6 0 0.9 0.2 0.3 0.3 0.5 0.8zm7.8 4.3l-0.4-1.7h-2.6l0.5 1.7zm-3.8-1.7h-2.7l0.8 1.7h2.5zm-1.6 2.5l1 2.2 2-0.2-0.7-2zm3.2 0l0.6 1.9 2.2-0.2-0.4-1.7zm3.6 1.6l2.2-0.2v-1.4h-2.6zm-0.6-2.4h2.8v-1.6h-3.1z"/></svg>